<?xml version="1.0" encoding="UTF-8" standalone="no"?>
<!-- Created with Inkscape (http://www.inkscape.org/) -->

<svg
   xmlns:dc="http://purl.org/dc/elements/1.1/"
   xmlns:cc="http://creativecommons.org/ns#"
   xmlns:rdf="http://www.w3.org/1999/02/22-rdf-syntax-ns#"
   xmlns:svg="http://www.w3.org/2000/svg"
   xmlns="http://www.w3.org/2000/svg"
   xmlns:xlink="http://www.w3.org/1999/xlink"
   xmlns:sodipodi="http://sodipodi.sourceforge.net/DTD/sodipodi-0.dtd"
   xmlns:inkscape="http://www.inkscape.org/namespaces/inkscape"
   width="549.24023"
   height="671.62085"
   id="svg2"
   version="1.1"
   inkscape:version="0.92.3 (2405546, 2018-03-11)"
   sodipodi:docname="psycho killer.svg">
  <title
     id="title55">Psycho killer</title>
  <defs
     id="defs4">
    <linearGradient
       inkscape:collect="always"
       xlink:href="#linearGradient4488-6"
       id="linearGradient4557"
       gradientUnits="userSpaceOnUse"
       gradientTransform="translate(196.841,-371.918)"
       x1="-360.146"
       y1="-95.6194"
       x2="-360.80801"
       y2="-231.175" />
    <linearGradient
       id="linearGradient4488-6"
       inkscape:collect="always">
      <stop
         id="stop4490-7"
         offset="0"
         style="stop-color:#55a11e;stop-opacity:1" />
      <stop
         id="stop4492-5"
         offset="1"
         style="stop-color:#417d22;stop-opacity:1" />
    </linearGradient>
  </defs>
  <sodipodi:namedview
     id="base"
     pagecolor="#ffffff"
     bordercolor="#666666"
     borderopacity="1.0"
     inkscape:pageopacity="0.0"
     inkscape:pageshadow="2"
     inkscape:zoom="0.30312758"
     inkscape:cx="1990.6866"
     inkscape:cy="56.120746"
     inkscape:document-units="px"
     inkscape:current-layer="layer1"
     showgrid="false"
     inkscape:window-width="1920"
     inkscape:window-height="1017"
     inkscape:window-x="3832"
     inkscape:window-y="-8"
     inkscape:window-maximized="1"
     fit-margin-top="0"
     fit-margin-left="0"
     fit-margin-right="0"
     fit-margin-bottom="0" />
  <metadata
     id="metadata7">
    <rdf:RDF>
      <cc:Work
         rdf:about="">
        <dc:format>image/svg+xml</dc:format>
        <dc:type
           rdf:resource="http://purl.org/dc/dcmitype/StillImage" />
        <dc:title>Psycho killer</dc:title>
        <cc:license
           rdf:resource="http://creativecommons.org/publicdomain/zero/1.0/" />
      </cc:Work>
      <cc:License
         rdf:about="http://creativecommons.org/publicdomain/zero/1.0/">
        <cc:permits
           rdf:resource="http://creativecommons.org/ns#Reproduction" />
        <cc:permits
           rdf:resource="http://creativecommons.org/ns#Distribution" />
        <cc:permits
           rdf:resource="http://creativecommons.org/ns#DerivativeWorks" />
      </cc:License>
    </rdf:RDF>
  </metadata>
  <g
     inkscape:label="Layer 1"
     inkscape:groupmode="layer"
     id="layer1"
     transform="translate(1006.1536,-128.16433)">
    <path
       style="fill:#000000;stroke-width:1.59567297"
       d="m -470.5012,769.06839 c 4.21928,-91.50819 -1.32552,-141.69842 -19.55345,-176.99099 -12.67944,-24.54975 -18.68981,-29.40586 -64.64746,-52.23236 -21.36491,-10.61165 -46.74388,-24.25777 -56.3977,-30.32473 -9.65382,-6.06695 -17.69324,-10.55676 -17.86536,-9.97735 -0.17215,0.5794 -1.09738,4.10518 -2.05611,7.83507 -1.55114,6.03469 -2.257,6.78161 -6.40876,6.78161 h -4.66564 l -0.45879,-14.72364 -0.4588,-14.72364 -6.38269,5.73571 c -7.15179,6.42686 -12.03557,8.45475 -16.75457,6.957 -5.12455,-1.62647 -3.75709,-5.37173 5.18594,-14.20346 14.64867,-14.46636 16.56272,-19.705 19.60346,-53.65366 1.45224,-16.21341 3.18896,-30.55602 3.85939,-31.87245 0.67044,-1.31643 3.29488,-2.39351 5.83209,-2.39351 4.52035,0 4.62914,0.20423 5.41094,10.15761 0.75836,9.65503 0.93051,10.01016 3.47921,7.17761 5.30651,-5.89753 6.18191,-11.96414 6.15946,-42.68526 -0.019,-25.97449 -0.5156,-32.27204 -3.3478,-42.4547 -9.16033,-32.93414 -30.4967,-52.45664 -58.15024,-53.20672 l -9.57403,-0.25968 0.54541,11.25166 c 0.59508,12.27622 -1.49876,16.25554 -7.54379,14.33692 -2.45734,-0.77994 -3.41291,-3.00909 -4.28622,-9.99887 -0.80199,-6.41884 -2.24475,-10.11603 -5.0373,-12.9086 -3.57049,-3.57049 -4.7853,-3.83199 -13.86357,-2.98424 -16.99092,1.58662 -33.0826,9.55992 -46.20688,22.89511 -15.71439,15.96693 -23.00119,44.84859 -20.95484,83.05569 1.12037,20.91809 1.18758,21.20833 4.91129,21.20833 2.69986,0 5.72164,2.53072 10.60733,8.8836 12.8062,16.65198 13.85241,18.47984 14.84673,25.93918 2.36034,17.70707 7.21391,32.87796 13.70682,42.84366 l 6.57605,10.09333 -5.37263,5.98491 c -2.95494,3.29168 -6.73827,9.03661 -8.40739,12.7665 -1.66914,3.72988 -3.67238,6.78161 -4.45167,6.78161 -1.9166,0 -12.94051,-5.60351 -23.62919,-12.01084 -11.13357,-6.67403 -26.6819,-11.92426 -35.31313,-11.92426 -3.68044,0 -10.42273,1.17611 -14.98288,2.61356 -10.88349,3.43073 -18.22072,2.05578 -22.91546,-4.2942 l -3.57453,-4.83482 -15.71433,1.08231 c -15.44002,1.0634 -15.7865,1.01012 -19.84905,-3.05243 -8.02896,-8.02898 -5.5119,-13.29664 14.25818,-29.83953 14.47772,-12.11441 44.69707,-44.77287 48.27737,-52.174 2.0457,-4.22884 2.15418,-6.22463 0.61713,-11.35484 -2.9631,-9.88993 -2.45443,-11.07881 7.03061,-16.43184 12.56772,-7.09277 19.38569,-13.97479 20.40639,-20.59808 0.46825,-3.0385 1.88165,-11.62799 3.14088,-19.08776 2.01111,-11.91404 2.00321,-13.7284 -0.0649,-14.92166 -1.7023,-0.98217 -2.07266,-2.86061 -1.33708,-6.78161 1.00289,-5.34591 0.93608,-5.42317 -4.68985,-5.42317 -4.04297,0 -5.95886,-0.81429 -6.57013,-2.79243 -1.82017,-5.89036 -3.50762,-7.54636 -8.76328,-8.6 -6.19571,-1.24211 -3.05858,1.99764 -74.72341,-77.16742 -19.51794,-19.18022 -35.48938,-42.17272 -55.99287,-60.35348 l 1.01822,5.44381 c 6.40937,34.2672 33.81457,86.63042 69.0806,131.99247 11.7566,13.11654 6.54047,19.4656 18.56987,8.37728 8.16222,-7.52366 11.9908,-8.07016 16.48751,-2.3535 5.26611,6.69477 5.29129,9.19331 0.22022,21.85768 -2.6541,6.62833 -4.82565,13.23568 -4.82565,14.68302 0,1.44732 -0.7507,4.03419 -1.66821,5.74858 -1.4674,2.74188 -3.14805,3.06537 -13.96214,2.68753 -10.43437,-0.36458 -13.45487,0.16353 -19.96922,3.49143 -10.02646,5.12208 -21.40498,16.15799 -28.90753,28.03712 -8.05454,12.75316 -18.76015,23.58242 -40.96696,41.44015 -26.51392,21.32134 -42.93962,44.50299 -40.8141,57.60105 2.74749,16.93083 63.18823,83.50439 114.91072,126.57056 28.54536,23.768 41.50084,38.47469 51.21182,58.13425 11.49224,23.26567 12.6725,30.05213 11.55816,66.45956 -1.02361,33.44341 -3.42028,56.89592 -6.15052,60.18566 -2.43125,2.92948 -7.33348,2.52285 -9.00405,-0.74684 -0.86543,-1.69387 -0.6159,-10.63926 0.63428,-22.73834 2.58845,-25.05085 2.83656,-62.61506 0.4869,-73.72133 -5.2297,-24.71954 -20.78223,-46.73005 -50.81125,-71.90996 -45.13088,-37.8431 -84.8306,-77.9816 -109.26656,-110.47421 -17.59201,-23.39225 -19.76581,-30.3901 -14.37371,-46.27218 5.66223,-16.67772 25.0758,-42.33061 36.47712,-48.20048 10.80701,-5.5639 37.71256,-31.33862 46.50054,-44.54611 9.4708,-14.23374 22.49548,-27.14366 32.08199,-31.79931 3.63719,-1.76639 10.8785,-3.2395 17.80658,-3.62243 12.45849,-0.68861 12.01194,-0.36386 15.38693,-11.19049 l 1.16098,-3.72428 -6.59133,3.72428 -6.59131,3.72427 -5.92521,-6.47171 c -29.82908,-32.58034 -64.80347,-90.03739 -78.29597,-128.6271 -11.87466,-33.96252 -13.31586,-65.49187 -2.80932,-61.46013 1.23787,0.47501 18.5964,19.0452 38.5745,41.26707 19.97811,22.22188 41.05457,45.44786 46.83657,51.61328 5.78202,6.16541 20.05868,21.78306 31.72592,34.70589 19.48186,21.57838 21.66008,23.49602 26.68883,23.49602 4.22609,0 6.63541,1.27448 10.55777,5.58486 2.79515,3.07167 5.75343,5.58486 6.57398,5.58486 0.82052,0 3.59313,1.49623 6.16134,3.32495 l 4.66946,3.32495 7.54441,-8.3994 c 4.14942,-4.61968 11.8229,-11.16708 17.05217,-14.54978 16.15324,-10.44917 29.54057,-13.3287 59.904,-12.88499 3.94929,0.0578 13.30011,0.0447 20.77959,-0.0289 12.8171,-0.12606 14.38632,0.24725 27.29043,6.49319 24.27773,11.75109 37.22539,30.20208 43.71863,62.30097 3.69811,18.28139 2.87112,75.06864 -1.20364,82.65002 -3.4587,6.43512 -13.2595,14.99684 -17.16727,14.99684 -3.37381,0 -3.98814,2.3509 -5.62932,21.54158 -0.52538,6.14334 -1.70126,13.5456 -2.61308,16.44949 -3.00377,9.56611 0.0776,13.32669 23.84585,29.10257 19.82624,13.15935 33.78885,20.60117 80.12014,42.70252 41.33334,19.71719 60.94486,52.29963 69.70957,115.81461 7.01366,10.36964 -4.65963,140.57972 -0.37994,141.41844 0.92246,0.0128 0.69843,0.64457 -0.49785,1.40252 -1.83646,1.16347 -1.83646,1.51279 0,2.2431 1.19628,0.47576 -0.97543,0.92171 -4.82595,0.99099 l -7.00117,0.12606 1.41632,-30.71671 z M -754.87127,490.75544 c 2.87726,-3.94572 2.89302,-4.36675 0.31188,-8.32713 -5.16226,-7.92078 -7.73544,-15.3893 -9.95858,-28.90425 -1.66059,-13.99199 -10.17089,-34.07556 -23.4941,-39.07522 -6.1854,-1.99941 -8.72032,-8.51732 -9.00572,-23.15602 -0.3041,-15.5974 -1.05891,-16.58094 -8.64288,-11.26192 -6.20192,4.3497 -6.26718,4.50321 -5.8859,13.84562 0.37131,9.09781 0.0945,9.82953 -7.48544,19.78738 -19.08483,22.01172 -36.22813,38.12286 -57.35881,58.82547 l 12.97003,-0.82094 c 13.51942,-0.85571 13.33152,-0.913 25.24308,7.69521 2.1608,1.56156 4.89331,1.38137 13.70308,-0.90358 9.03307,-2.34288 12.61627,-2.55606 20.00479,-1.19023 8.87687,1.64099 26.89982,8.57869 37.79192,14.54751 7.25554,3.976 8.19459,3.89154 11.80665,-1.0619 z M -894.63496,346.61397 c 596.42331,470.49881 298.21165,235.2494 0,0 z"
       id="path3260"
       inkscape:connector-curvature="0"
       sodipodi:nodetypes="ccssccscccsssccsscscscsccccsssssscccssscscccsssccccssccccsccccscsscsssssscssscsscssccccsscsccscscccsccsscssccsccccccccccccsccccssccsccc" />
  </g>
</svg>
